<mxfile host="app.diagrams.net" modified="2022-01-09T11:20:50.461Z" agent="5.0 (Windows NT 10.0; Win64; x64) AppleWebKit/537.36 (KHTML, like Gecko) Chrome/96.0.4664.110 Safari/537.36" etag="n0BrTXLUUUiJfVkn1a4L" version="13.10.4" type="github">
  <diagram id="ttFOmufD4kqqfRZyRv_N" name="Page-1">
    <mxGraphModel dx="1038" dy="579" grid="1" gridSize="10" guides="1" tooltips="1" connect="1" arrows="1" fold="1" page="1" pageScale="1" pageWidth="827" pageHeight="1169" math="0" shadow="0">
      <root>
        <mxCell id="0" />
        <mxCell id="1" parent="0" />
        <mxCell id="Q2ktAcArFUe5gpzbEgQe-1" value="VPC" style="points=[[0,0],[0.25,0],[0.5,0],[0.75,0],[1,0],[1,0.25],[1,0.5],[1,0.75],[1,1],[0.75,1],[0.5,1],[0.25,1],[0,1],[0,0.75],[0,0.5],[0,0.25]];outlineConnect=0;gradientColor=none;html=1;whiteSpace=wrap;fontSize=12;fontStyle=0;shape=mxgraph.aws4.group;grIcon=mxgraph.aws4.group_vpc;strokeColor=#248814;fillColor=none;verticalAlign=top;align=left;spacingLeft=30;fontColor=#AAB7B8;dashed=0;" vertex="1" parent="1">
          <mxGeometry x="280" y="200" width="520" height="560" as="geometry" />
        </mxCell>
        <mxCell id="Q2ktAcArFUe5gpzbEgQe-6" value="Private subnet" style="points=[[0,0],[0.25,0],[0.5,0],[0.75,0],[1,0],[1,0.25],[1,0.5],[1,0.75],[1,1],[0.75,1],[0.5,1],[0.25,1],[0,1],[0,0.75],[0,0.5],[0,0.25]];outlineConnect=0;gradientColor=none;html=1;whiteSpace=wrap;fontSize=12;fontStyle=0;shape=mxgraph.aws4.group;grIcon=mxgraph.aws4.group_security_group;grStroke=0;strokeColor=#147EBA;fillColor=#E6F2F8;verticalAlign=top;align=left;spacingLeft=30;fontColor=#147EBA;dashed=0;" vertex="1" parent="1">
          <mxGeometry x="600" y="240" width="160" height="480" as="geometry" />
        </mxCell>
        <mxCell id="Q2ktAcArFUe5gpzbEgQe-7" value="Public subnet" style="points=[[0,0],[0.25,0],[0.5,0],[0.75,0],[1,0],[1,0.25],[1,0.5],[1,0.75],[1,1],[0.75,1],[0.5,1],[0.25,1],[0,1],[0,0.75],[0,0.5],[0,0.25]];outlineConnect=0;gradientColor=none;html=1;whiteSpace=wrap;fontSize=12;fontStyle=0;shape=mxgraph.aws4.group;grIcon=mxgraph.aws4.group_security_group;grStroke=0;strokeColor=#248814;fillColor=#E9F3E6;verticalAlign=top;align=left;spacingLeft=30;fontColor=#248814;dashed=0;" vertex="1" parent="1">
          <mxGeometry x="320" y="240" width="240" height="480" as="geometry" />
        </mxCell>
        <mxCell id="Q2ktAcArFUe5gpzbEgQe-3" value="Dynamo DB" style="outlineConnect=0;fontColor=#232F3E;gradientColor=#4D72F3;gradientDirection=north;fillColor=#3334B9;strokeColor=#ffffff;dashed=0;verticalLabelPosition=bottom;verticalAlign=top;align=center;html=1;fontSize=12;fontStyle=0;aspect=fixed;shape=mxgraph.aws4.resourceIcon;resIcon=mxgraph.aws4.dynamodb;" vertex="1" parent="1">
          <mxGeometry x="641" y="440" width="78" height="78" as="geometry" />
        </mxCell>
        <mxCell id="Q2ktAcArFUe5gpzbEgQe-4" value="Lambda&lt;br&gt;API CALL" style="outlineConnect=0;fontColor=#232F3E;gradientColor=#F78E04;gradientDirection=north;fillColor=#D05C17;strokeColor=#ffffff;dashed=0;verticalLabelPosition=bottom;verticalAlign=top;align=center;html=1;fontSize=12;fontStyle=0;aspect=fixed;shape=mxgraph.aws4.resourceIcon;resIcon=mxgraph.aws4.lambda;" vertex="1" parent="1">
          <mxGeometry x="400" y="280" width="78" height="78" as="geometry" />
        </mxCell>
        <mxCell id="Q2ktAcArFUe5gpzbEgQe-8" value="IoT Core" style="outlineConnect=0;fontColor=#232F3E;gradientColor=#60A337;gradientDirection=north;fillColor=#277116;strokeColor=#ffffff;dashed=0;verticalLabelPosition=bottom;verticalAlign=top;align=center;html=1;fontSize=12;fontStyle=0;aspect=fixed;shape=mxgraph.aws4.resourceIcon;resIcon=mxgraph.aws4.iot_core;" vertex="1" parent="1">
          <mxGeometry x="400" y="440" width="78" height="78" as="geometry" />
        </mxCell>
        <mxCell id="Q2ktAcArFUe5gpzbEgQe-11" value="EC2&lt;br&gt;Webpage" style="outlineConnect=0;fontColor=#232F3E;gradientColor=#F78E04;gradientDirection=north;fillColor=#D05C17;strokeColor=#ffffff;dashed=0;verticalLabelPosition=bottom;verticalAlign=top;align=center;html=1;fontSize=12;fontStyle=0;aspect=fixed;shape=mxgraph.aws4.resourceIcon;resIcon=mxgraph.aws4.ec2;" vertex="1" parent="1">
          <mxGeometry x="400" y="602" width="78" height="78" as="geometry" />
        </mxCell>
        <mxCell id="Q2ktAcArFUe5gpzbEgQe-12" value="ENDPOINT" style="outlineConnect=0;fontColor=#232F3E;gradientColor=none;fillColor=#5A30B5;strokeColor=none;dashed=0;verticalLabelPosition=bottom;verticalAlign=top;align=center;html=1;fontSize=12;fontStyle=0;aspect=fixed;pointerEvents=1;shape=mxgraph.aws4.endpoint;" vertex="1" parent="1">
          <mxGeometry x="40" y="280" width="78" height="78" as="geometry" />
        </mxCell>
        <mxCell id="Q2ktAcArFUe5gpzbEgQe-15" value="" style="edgeStyle=orthogonalEdgeStyle;html=1;endArrow=block;elbow=vertical;startArrow=none;endFill=1;strokeColor=#545B64;rounded=0;" edge="1" parent="1" source="Q2ktAcArFUe5gpzbEgQe-8" target="Q2ktAcArFUe5gpzbEgQe-3">
          <mxGeometry width="100" relative="1" as="geometry">
            <mxPoint x="500" y="485" as="sourcePoint" />
            <mxPoint x="600" y="485" as="targetPoint" />
          </mxGeometry>
        </mxCell>
        <mxCell id="Q2ktAcArFUe5gpzbEgQe-17" value="" style="edgeStyle=orthogonalEdgeStyle;html=1;endArrow=block;elbow=vertical;startArrow=none;endFill=1;strokeColor=#545B64;rounded=0;" edge="1" parent="1" source="Q2ktAcArFUe5gpzbEgQe-4" target="Q2ktAcArFUe5gpzbEgQe-3">
          <mxGeometry width="100" relative="1" as="geometry">
            <mxPoint x="470" y="467.9999999999999" as="sourcePoint" />
            <mxPoint x="610" y="467.9999999999999" as="targetPoint" />
          </mxGeometry>
        </mxCell>
        <mxCell id="Q2ktAcArFUe5gpzbEgQe-20" value="" style="edgeStyle=orthogonalEdgeStyle;html=1;endArrow=none;elbow=vertical;startArrow=block;startFill=1;strokeColor=#545B64;rounded=0;" edge="1" parent="1" source="Q2ktAcArFUe5gpzbEgQe-11" target="Q2ktAcArFUe5gpzbEgQe-3">
          <mxGeometry width="100" relative="1" as="geometry">
            <mxPoint x="500" y="475" as="sourcePoint" />
            <mxPoint x="600" y="475" as="targetPoint" />
          </mxGeometry>
        </mxCell>
        <mxCell id="Q2ktAcArFUe5gpzbEgQe-23" value="Raspberry PI" style="outlineConnect=0;fontColor=#232F3E;gradientColor=none;fillColor=#277116;strokeColor=none;dashed=0;verticalLabelPosition=bottom;verticalAlign=top;align=center;html=1;fontSize=12;fontStyle=0;aspect=fixed;pointerEvents=1;shape=mxgraph.aws4.sensor;" vertex="1" parent="1">
          <mxGeometry x="40" y="440" width="72" height="78" as="geometry" />
        </mxCell>
        <mxCell id="Q2ktAcArFUe5gpzbEgQe-24" value="" style="edgeStyle=orthogonalEdgeStyle;html=1;endArrow=block;elbow=vertical;startArrow=none;endFill=1;strokeColor=#545B64;rounded=0;" edge="1" parent="1" source="Q2ktAcArFUe5gpzbEgQe-28" target="Q2ktAcArFUe5gpzbEgQe-8">
          <mxGeometry width="100" relative="1" as="geometry">
            <mxPoint x="248" y="334" as="sourcePoint" />
            <mxPoint x="392" y="334" as="targetPoint" />
          </mxGeometry>
        </mxCell>
        <mxCell id="Q2ktAcArFUe5gpzbEgQe-27" value="" style="edgeStyle=orthogonalEdgeStyle;html=1;endArrow=block;elbow=vertical;startArrow=none;endFill=1;strokeColor=#545B64;rounded=0;" edge="1" parent="1" source="Q2ktAcArFUe5gpzbEgQe-12" target="Q2ktAcArFUe5gpzbEgQe-4">
          <mxGeometry width="100" relative="1" as="geometry">
            <mxPoint x="198" y="324" as="sourcePoint" />
            <mxPoint x="230" y="319" as="targetPoint" />
          </mxGeometry>
        </mxCell>
        <mxCell id="Q2ktAcArFUe5gpzbEgQe-28" value="Internet &lt;br&gt;gateway" style="outlineConnect=0;fontColor=#232F3E;gradientColor=none;fillColor=#5A30B5;strokeColor=none;dashed=0;verticalLabelPosition=bottom;verticalAlign=top;align=center;html=1;fontSize=12;fontStyle=0;aspect=fixed;pointerEvents=1;shape=mxgraph.aws4.internet_gateway;" vertex="1" parent="1">
          <mxGeometry x="242" y="440" width="78" height="78" as="geometry" />
        </mxCell>
        <mxCell id="Q2ktAcArFUe5gpzbEgQe-29" value="" style="edgeStyle=orthogonalEdgeStyle;html=1;endArrow=block;elbow=vertical;startArrow=none;endFill=1;strokeColor=#545B64;rounded=0;" edge="1" parent="1" source="Q2ktAcArFUe5gpzbEgQe-23" target="Q2ktAcArFUe5gpzbEgQe-28">
          <mxGeometry width="100" relative="1" as="geometry">
            <mxPoint x="194.90439746083757" y="458" as="sourcePoint" />
            <mxPoint x="382" y="458" as="targetPoint" />
          </mxGeometry>
        </mxCell>
        <mxCell id="Q2ktAcArFUe5gpzbEgQe-31" value="MQTT" style="text;html=1;strokeColor=none;fillColor=none;align=center;verticalAlign=middle;whiteSpace=wrap;rounded=0;" vertex="1" parent="1">
          <mxGeometry x="118" y="460" width="122" height="20" as="geometry" />
        </mxCell>
        <mxCell id="Q2ktAcArFUe5gpzbEgQe-33" value="HTTP" style="text;html=1;strokeColor=none;fillColor=none;align=center;verticalAlign=middle;whiteSpace=wrap;rounded=0;" vertex="1" parent="1">
          <mxGeometry x="159" y="300" width="40" height="20" as="geometry" />
        </mxCell>
      </root>
    </mxGraphModel>
  </diagram>
</mxfile>
